<?xml version="1.0" encoding="UTF-8" standalone="no"?>
<svg xmlns:ffdec="https://www.free-decompiler.com/flash" xmlns:xlink="http://www.w3.org/1999/xlink" ffdec:objectType="frame" height="471.2px" width="333.0px" xmlns="http://www.w3.org/2000/svg">
  <g transform="matrix(1.0, 0.0, 0.0, 1.0, 24.0, 0.0)">
    <use ffdec:characterId="20" height="64.0" transform="matrix(1.0, 0.0, 0.0, 1.0, 0.0, 0.0)" width="200.0" xlink:href="#shape0"/>
    <use ffdec:characterId="23" height="53.0" transform="matrix(1.0, 0.0, 0.0, 1.0, 5.0, 5.0)" width="190.0" xlink:href="#text0"/>
  </g>
  <defs>
    <g id="shape0" transform="matrix(1.0, 0.0, 0.0, 1.0, 0.0, 0.0)">
      <path d="M199.7 0.3 L200.0 1.05 200.0 63.0 199.7 63.7 199.0 64.0 1.0 64.0 Q0.55 64.0 0.3 63.7 0.0 63.4 0.0 63.0 L0.0 1.05 Q0.0 0.6 0.3 0.3 0.55 0.0 1.0 0.0 L199.0 0.0 Q199.4 0.0 199.7 0.3" fill="#25272d" fill-rule="evenodd" stroke="none"/>
    </g>
    <g id="text0" transform="matrix(1.0, 0.0, 0.0, 1.0, 178.0, -2.0)">
      <g transform="matrix(1.0, 0.0, 0.0, 1.0, -180.0, 0.0)">
        <use fill="#ffcc00" height="53.0" transform="matrix(0.0107, 0.0, 0.0, 0.0107, 56.0, 11.0)" width="190.0" xlink:href="#font_Verdana_11pt_st_M0"/>
        <use fill="#ffcc00" height="53.0" transform="matrix(0.0107, 0.0, 0.0, 0.0107, 66.0, 11.0)" width="190.0" xlink:href="#font_Verdana_11pt_st_e0"/>
        <use fill="#ffcc00" height="53.0" transform="matrix(0.0107, 0.0, 0.0, 0.0107, 73.0, 11.0)" width="190.0" xlink:href="#font_Verdana_11pt_st_d0"/>
        <use fill="#ffcc00" height="53.0" transform="matrix(0.0107, 0.0, 0.0, 0.0107, 81.0, 11.0)" width="190.0" xlink:href="#font_Verdana_11pt_st_a0"/>
        <use fill="#ffcc00" height="53.0" transform="matrix(0.0107, 0.0, 0.0, 0.0107, 88.0, 11.0)" width="190.0" xlink:href="#font_Verdana_11pt_st_l0"/>
        <use fill="#ffcc00" height="53.0" transform="matrix(0.0107, 0.0, 0.0, 0.0107, 96.0, 11.0)" width="190.0" xlink:href="#font_Verdana_11pt_st_P0"/>
        <use fill="#ffcc00" height="53.0" transform="matrix(0.0107, 0.0, 0.0, 0.0107, 104.0, 11.0)" width="190.0" xlink:href="#font_Verdana_11pt_st_o0"/>
        <use fill="#ffcc00" height="53.0" transform="matrix(0.0107, 0.0, 0.0, 0.0107, 112.0, 11.0)" width="190.0" xlink:href="#font_Verdana_11pt_st_p0"/>
        <use fill="#ffcc00" height="53.0" transform="matrix(0.0107, 0.0, 0.0, 0.0107, 120.0, 11.0)" width="190.0" xlink:href="#font_Verdana_11pt_st_u0"/>
        <use fill="#ffcc00" height="53.0" transform="matrix(0.0107, 0.0, 0.0, 0.0107, 128.0, 11.0)" width="190.0" xlink:href="#font_Verdana_11pt_st_p0"/>
      </g>
      <g transform="matrix(1.0, 0.0, 0.0, 1.0, -180.0, 0.0)">
        <use fill="#cccccc" height="53.0" transform="matrix(0.0107, 0.0, 0.0, 0.0107, 1.0, 24.0)" width="190.0" xlink:href="#font_Verdana_11pt_st_P1"/>
        <use fill="#cccccc" height="53.0" transform="matrix(0.0107, 0.0, 0.0, 0.0107, 7.0, 24.0)" width="190.0" xlink:href="#font_Verdana_11pt_st_l1"/>
        <use fill="#cccccc" height="53.0" transform="matrix(0.0107, 0.0, 0.0, 0.0107, 9.0, 24.0)" width="190.0" xlink:href="#font_Verdana_11pt_st_a1"/>
        <use fill="#cccccc" height="53.0" transform="matrix(0.0107, 0.0, 0.0, 0.0107, 15.0, 24.0)" width="190.0" xlink:href="#font_Verdana_11pt_st_c0"/>
        <use fill="#cccccc" height="53.0" transform="matrix(0.0107, 0.0, 0.0, 0.0107, 20.0, 24.0)" width="190.0" xlink:href="#font_Verdana_11pt_st_e1"/>
        <use fill="#cccccc" height="53.0" transform="matrix(0.0107, 0.0, 0.0, 0.0107, 29.0, 24.0)" width="190.0" xlink:href="#font_Verdana_11pt_st_t0"/>
        <use fill="#cccccc" height="53.0" transform="matrix(0.0107, 0.0, 0.0, 0.0107, 32.0, 24.0)" width="190.0" xlink:href="#font_Verdana_11pt_st_h0"/>
        <use fill="#cccccc" height="53.0" transform="matrix(0.0107, 0.0, 0.0, 0.0107, 38.0, 24.0)" width="190.0" xlink:href="#font_Verdana_11pt_st_i0"/>
        <use fill="#cccccc" height="53.0" transform="matrix(0.0107, 0.0, 0.0, 0.0107, 40.0, 24.0)" width="190.0" xlink:href="#font_Verdana_11pt_st_s0"/>
        <use fill="#cccccc" height="53.0" transform="matrix(0.0107, 0.0, 0.0, 0.0107, 48.0, 24.0)" width="190.0" xlink:href="#font_Verdana_11pt_st_c0"/>
        <use fill="#cccccc" height="53.0" transform="matrix(0.0107, 0.0, 0.0, 0.0107, 53.0, 24.0)" width="190.0" xlink:href="#font_Verdana_11pt_st_l1"/>
        <use fill="#cccccc" height="53.0" transform="matrix(0.0107, 0.0, 0.0, 0.0107, 55.0, 24.0)" width="190.0" xlink:href="#font_Verdana_11pt_st_i0"/>
        <use fill="#cccccc" height="53.0" transform="matrix(0.0107, 0.0, 0.0, 0.0107, 57.0, 24.0)" width="190.0" xlink:href="#font_Verdana_11pt_st_p1"/>
        <use fill="#cccccc" height="53.0" transform="matrix(0.0107, 0.0, 0.0, 0.0107, 66.0, 24.0)" width="190.0" xlink:href="#font_Verdana_11pt_st_o1"/>
        <use fill="#cccccc" height="53.0" transform="matrix(0.0107, 0.0, 0.0, 0.0107, 72.0, 24.0)" width="190.0" xlink:href="#font_Verdana_11pt_st_n0"/>
        <use fill="#cccccc" height="53.0" transform="matrix(0.0107, 0.0, 0.0, 0.0107, 81.0, 24.0)" width="190.0" xlink:href="#font_Verdana_11pt_st_t0"/>
        <use fill="#cccccc" height="53.0" transform="matrix(0.0107, 0.0, 0.0, 0.0107, 84.0, 24.0)" width="190.0" xlink:href="#font_Verdana_11pt_st_h0"/>
        <use fill="#cccccc" height="53.0" transform="matrix(0.0107, 0.0, 0.0, 0.0107, 90.0, 24.0)" width="190.0" xlink:href="#font_Verdana_11pt_st_e1"/>
        <use fill="#cccccc" height="53.0" transform="matrix(0.0107, 0.0, 0.0, 0.0107, 99.0, 24.0)" width="190.0" xlink:href="#font_Verdana_11pt_st_r0"/>
        <use fill="#cccccc" height="53.0" transform="matrix(0.0107, 0.0, 0.0, 0.0107, 103.0, 24.0)" width="190.0" xlink:href="#font_Verdana_11pt_st_o1"/>
        <use fill="#cccccc" height="53.0" transform="matrix(0.0107, 0.0, 0.0, 0.0107, 109.0, 24.0)" width="190.0" xlink:href="#font_Verdana_11pt_st_o1"/>
        <use fill="#cccccc" height="53.0" transform="matrix(0.0107, 0.0, 0.0, 0.0107, 115.0, 24.0)" width="190.0" xlink:href="#font_Verdana_11pt_st_t0"/>
        <use fill="#cccccc" height="53.0" transform="matrix(0.0107, 0.0, 0.0, 0.0107, 121.0, 24.0)" width="190.0" xlink:href="#font_Verdana_11pt_st_o1"/>
        <use fill="#cccccc" height="53.0" transform="matrix(0.0107, 0.0, 0.0, 0.0107, 127.0, 24.0)" width="190.0" xlink:href="#font_Verdana_11pt_st_f0"/>
        <use fill="#cccccc" height="53.0" transform="matrix(0.0107, 0.0, 0.0, 0.0107, 133.0, 24.0)" width="190.0" xlink:href="#font_Verdana_11pt_st_y0"/>
        <use fill="#cccccc" height="53.0" transform="matrix(0.0107, 0.0, 0.0, 0.0107, 139.0, 24.0)" width="190.0" xlink:href="#font_Verdana_11pt_st_o1"/>
        <use fill="#cccccc" height="53.0" transform="matrix(0.0107, 0.0, 0.0, 0.0107, 145.0, 24.0)" width="190.0" xlink:href="#font_Verdana_11pt_st_u1"/>
        <use fill="#cccccc" height="53.0" transform="matrix(0.0107, 0.0, 0.0, 0.0107, 151.0, 24.0)" width="190.0" xlink:href="#font_Verdana_11pt_st_r0"/>
        <use fill="#cccccc" height="53.0" transform="matrix(0.0107, 0.0, 0.0, 0.0107, 158.0, 24.0)" width="190.0" xlink:href="#font_Verdana_11pt_st_m0"/>
        <use fill="#cccccc" height="53.0" transform="matrix(0.0107, 0.0, 0.0, 0.0107, 168.0, 24.0)" width="190.0" xlink:href="#font_Verdana_11pt_st_o1"/>
        <use fill="#cccccc" height="53.0" transform="matrix(0.0107, 0.0, 0.0, 0.0107, 174.0, 24.0)" width="190.0" xlink:href="#font_Verdana_11pt_st_v0"/>
        <use fill="#cccccc" height="53.0" transform="matrix(0.0107, 0.0, 0.0, 0.0107, 180.0, 24.0)" width="190.0" xlink:href="#font_Verdana_11pt_st_i0"/>
        <use fill="#cccccc" height="53.0" transform="matrix(0.0107, 0.0, 0.0, 0.0107, 182.0, 24.0)" width="190.0" xlink:href="#font_Verdana_11pt_st_e1"/>
        <use fill="#cccccc" height="53.0" transform="matrix(0.0107, 0.0, 0.0, 0.0107, 188.0, 24.0)" width="190.0" xlink:href="#font_Verdana_11pt_st__2"/>
      </g>
      <g transform="matrix(1.0, 0.0, 0.0, 1.0, -180.0, 0.0)">
        <use fill="#cccccc" height="53.0" transform="matrix(0.0107, 0.0, 0.0, 0.0107, 1.0, 38.0)" width="190.0" xlink:href="#font_Verdana_11pt_st_s0"/>
        <use fill="#cccccc" height="53.0" transform="matrix(0.0107, 0.0, 0.0, 0.0107, 6.0, 38.0)" width="190.0" xlink:href="#font_Verdana_11pt_st_p1"/>
        <use fill="#cccccc" height="53.0" transform="matrix(0.0107, 0.0, 0.0, 0.0107, 12.0, 38.0)" width="190.0" xlink:href="#font_Verdana_11pt_st_a1"/>
        <use fill="#cccccc" height="53.0" transform="matrix(0.0107, 0.0, 0.0, 0.0107, 18.0, 38.0)" width="190.0" xlink:href="#font_Verdana_11pt_st_n0"/>
        <use fill="#cccccc" height="53.0" transform="matrix(0.0107, 0.0, 0.0, 0.0107, 24.0, 38.0)" width="190.0" xlink:href="#font_Verdana_11pt_st_n0"/>
        <use fill="#cccccc" height="53.0" transform="matrix(0.0107, 0.0, 0.0, 0.0107, 30.0, 38.0)" width="190.0" xlink:href="#font_Verdana_11pt_st_i0"/>
        <use fill="#cccccc" height="53.0" transform="matrix(0.0107, 0.0, 0.0, 0.0107, 32.0, 38.0)" width="190.0" xlink:href="#font_Verdana_11pt_st_n0"/>
        <use fill="#cccccc" height="53.0" transform="matrix(0.0107, 0.0, 0.0, 0.0107, 38.0, 38.0)" width="190.0" xlink:href="#font_Verdana_11pt_st_g0"/>
        <use fill="#cccccc" height="53.0" transform="matrix(0.0107, 0.0, 0.0, 0.0107, 47.0, 38.0)" width="190.0" xlink:href="#font_Verdana_11pt_st_a1"/>
        <use fill="#cccccc" height="53.0" transform="matrix(0.0107, 0.0, 0.0, 0.0107, 53.0, 38.0)" width="190.0" xlink:href="#font_Verdana_11pt_st_n0"/>
        <use fill="#cccccc" height="53.0" transform="matrix(0.0107, 0.0, 0.0, 0.0107, 59.0, 38.0)" width="190.0" xlink:href="#font_Verdana_11pt_st_y0"/>
        <use fill="#cccccc" height="53.0" transform="matrix(0.0107, 0.0, 0.0, 0.0107, 68.0, 38.0)" width="190.0" xlink:href="#font_Verdana_11pt_st_f0"/>
        <use fill="#cccccc" height="53.0" transform="matrix(0.0107, 0.0, 0.0, 0.0107, 71.0, 38.0)" width="190.0" xlink:href="#font_Verdana_11pt_st_r0"/>
        <use fill="#cccccc" height="53.0" transform="matrix(0.0107, 0.0, 0.0, 0.0107, 75.0, 38.0)" width="190.0" xlink:href="#font_Verdana_11pt_st_a1"/>
        <use fill="#cccccc" height="53.0" transform="matrix(0.0107, 0.0, 0.0, 0.0107, 81.0, 38.0)" width="190.0" xlink:href="#font_Verdana_11pt_st_m0"/>
        <use fill="#cccccc" height="53.0" transform="matrix(0.0107, 0.0, 0.0, 0.0107, 91.0, 38.0)" width="190.0" xlink:href="#font_Verdana_11pt_st_e1"/>
        <use fill="#cccccc" height="53.0" transform="matrix(0.0107, 0.0, 0.0, 0.0107, 97.0, 38.0)" width="190.0" xlink:href="#font_Verdana_11pt_st_s0"/>
        <use fill="#cccccc" height="53.0" transform="matrix(0.0107, 0.0, 0.0, 0.0107, 105.0, 38.0)" width="190.0" xlink:href="#font_Verdana_11pt_st_w0"/>
        <use fill="#cccccc" height="53.0" transform="matrix(0.0107, 0.0, 0.0, 0.0107, 113.0, 38.0)" width="190.0" xlink:href="#font_Verdana_11pt_st_h0"/>
        <use fill="#cccccc" height="53.0" transform="matrix(0.0107, 0.0, 0.0, 0.0107, 119.0, 38.0)" width="190.0" xlink:href="#font_Verdana_11pt_st_e1"/>
        <use fill="#cccccc" height="53.0" transform="matrix(0.0107, 0.0, 0.0, 0.0107, 125.0, 38.0)" width="190.0" xlink:href="#font_Verdana_11pt_st_r0"/>
        <use fill="#cccccc" height="53.0" transform="matrix(0.0107, 0.0, 0.0, 0.0107, 129.0, 38.0)" width="190.0" xlink:href="#font_Verdana_11pt_st_e1"/>
        <use fill="#cccccc" height="53.0" transform="matrix(0.0107, 0.0, 0.0, 0.0107, 138.0, 38.0)" width="190.0" xlink:href="#font_Verdana_11pt_st_m0"/>
        <use fill="#cccccc" height="53.0" transform="matrix(0.0107, 0.0, 0.0, 0.0107, 148.0, 38.0)" width="190.0" xlink:href="#font_Verdana_11pt_st_e1"/>
        <use fill="#cccccc" height="53.0" transform="matrix(0.0107, 0.0, 0.0, 0.0107, 154.0, 38.0)" width="190.0" xlink:href="#font_Verdana_11pt_st_d1"/>
        <use fill="#cccccc" height="53.0" transform="matrix(0.0107, 0.0, 0.0, 0.0107, 160.0, 38.0)" width="190.0" xlink:href="#font_Verdana_11pt_st_a1"/>
        <use fill="#cccccc" height="53.0" transform="matrix(0.0107, 0.0, 0.0, 0.0107, 166.0, 38.0)" width="190.0" xlink:href="#font_Verdana_11pt_st_l1"/>
        <use fill="#cccccc" height="53.0" transform="matrix(0.0107, 0.0, 0.0, 0.0107, 168.0, 38.0)" width="190.0" xlink:href="#font_Verdana_11pt_st_s0"/>
        <use fill="#cccccc" height="53.0" transform="matrix(0.0107, 0.0, 0.0, 0.0107, 176.0, 38.0)" width="190.0" xlink:href="#font_Verdana_11pt_st_a1"/>
        <use fill="#cccccc" height="53.0" transform="matrix(0.0107, 0.0, 0.0, 0.0107, 182.0, 38.0)" width="190.0" xlink:href="#font_Verdana_11pt_st_r0"/>
        <use fill="#cccccc" height="53.0" transform="matrix(0.0107, 0.0, 0.0, 0.0107, 186.0, 38.0)" width="190.0" xlink:href="#font_Verdana_11pt_st_e1"/>
      </g>
      <g transform="matrix(1.0, 0.0, 0.0, 1.0, -180.0, 0.0)">
        <use fill="#cccccc" height="53.0" transform="matrix(0.0107, 0.0, 0.0, 0.0107, 36.0, 51.0)" width="190.0" xlink:href="#font_Verdana_11pt_st_c0"/>
        <use fill="#cccccc" height="53.0" transform="matrix(0.0107, 0.0, 0.0, 0.0107, 41.0, 51.0)" width="190.0" xlink:href="#font_Verdana_11pt_st_a1"/>
        <use fill="#cccccc" height="53.0" transform="matrix(0.0107, 0.0, 0.0, 0.0107, 47.0, 51.0)" width="190.0" xlink:href="#font_Verdana_11pt_st_l1"/>
        <use fill="#cccccc" height="53.0" transform="matrix(0.0107, 0.0, 0.0, 0.0107, 49.0, 51.0)" width="190.0" xlink:href="#font_Verdana_11pt_st_l1"/>
        <use fill="#cccccc" height="53.0" transform="matrix(0.0107, 0.0, 0.0, 0.0107, 51.0, 51.0)" width="190.0" xlink:href="#font_Verdana_11pt_st_e1"/>
        <use fill="#cccccc" height="53.0" transform="matrix(0.0107, 0.0, 0.0, 0.0107, 57.0, 51.0)" width="190.0" xlink:href="#font_Verdana_11pt_st_d1"/>
        <use fill="#cccccc" height="53.0" transform="matrix(0.0107, 0.0, 0.0, 0.0107, 63.0, 51.0)" width="190.0" xlink:href="#font_Verdana_11pt_st_.0"/>
        <use fill="#cccccc" height="53.0" transform="matrix(0.0107, 0.0, 0.0, 0.0107, 69.0, 51.0)" width="190.0" xlink:href="#font_Verdana_11pt_st__3"/>
        <use fill="#cccccc" height="53.0" transform="matrix(0.0107, 0.0, 0.0, 0.0107, 73.0, 51.0)" width="190.0" xlink:href="#font_Verdana_11pt_st_t0"/>
        <use fill="#cccccc" height="53.0" transform="matrix(0.0107, 0.0, 0.0, 0.0107, 76.0, 51.0)" width="190.0" xlink:href="#font_Verdana_11pt_st_h0"/>
        <use fill="#cccccc" height="53.0" transform="matrix(0.0107, 0.0, 0.0, 0.0107, 82.0, 51.0)" width="190.0" xlink:href="#font_Verdana_11pt_st_i0"/>
        <use fill="#cccccc" height="53.0" transform="matrix(0.0107, 0.0, 0.0, 0.0107, 84.0, 51.0)" width="190.0" xlink:href="#font_Verdana_11pt_st_s0"/>
        <use fill="#cccccc" height="53.0" transform="matrix(0.0107, 0.0, 0.0, 0.0107, 92.0, 51.0)" width="190.0" xlink:href="#font_Verdana_11pt_st_c0"/>
        <use fill="#cccccc" height="53.0" transform="matrix(0.0107, 0.0, 0.0, 0.0107, 97.0, 51.0)" width="190.0" xlink:href="#font_Verdana_11pt_st_l1"/>
        <use fill="#cccccc" height="53.0" transform="matrix(0.0107, 0.0, 0.0, 0.0107, 99.0, 51.0)" width="190.0" xlink:href="#font_Verdana_11pt_st_i0"/>
        <use fill="#cccccc" height="53.0" transform="matrix(0.0107, 0.0, 0.0, 0.0107, 101.0, 51.0)" width="190.0" xlink:href="#font_Verdana_11pt_st_p1"/>
        <use fill="#cccccc" height="53.0" transform="matrix(0.0107, 0.0, 0.0, 0.0107, 110.0, 51.0)" width="190.0" xlink:href="#font_Verdana_11pt_st_i0"/>
        <use fill="#cccccc" height="53.0" transform="matrix(0.0107, 0.0, 0.0, 0.0107, 112.0, 51.0)" width="190.0" xlink:href="#font_Verdana_11pt_st_s0"/>
        <use fill="#cccccc" height="53.0" transform="matrix(0.0107, 0.0, 0.0, 0.0107, 120.0, 51.0)" width="190.0" xlink:href="#font_Verdana_11pt_st_h0"/>
        <use fill="#cccccc" height="53.0" transform="matrix(0.0107, 0.0, 0.0, 0.0107, 126.0, 51.0)" width="190.0" xlink:href="#font_Verdana_11pt_st_i0"/>
        <use fill="#cccccc" height="53.0" transform="matrix(0.0107, 0.0, 0.0, 0.0107, 128.0, 51.0)" width="190.0" xlink:href="#font_Verdana_11pt_st_d1"/>
        <use fill="#cccccc" height="53.0" transform="matrix(0.0107, 0.0, 0.0, 0.0107, 134.0, 51.0)" width="190.0" xlink:href="#font_Verdana_11pt_st_d1"/>
        <use fill="#cccccc" height="53.0" transform="matrix(0.0107, 0.0, 0.0, 0.0107, 140.0, 51.0)" width="190.0" xlink:href="#font_Verdana_11pt_st_e1"/>
        <use fill="#cccccc" height="53.0" transform="matrix(0.0107, 0.0, 0.0, 0.0107, 146.0, 51.0)" width="190.0" xlink:href="#font_Verdana_11pt_st_n0"/>
        <use fill="#cccccc" height="53.0" transform="matrix(0.0107, 0.0, 0.0, 0.0107, 152.0, 51.0)" width="190.0" xlink:href="#font_Verdana_11pt_st__4"/>
      </g>
    </g>
    <g id="font_Verdana_11pt_st_M0">
      <path d="M558.55 -372.35 L558.55 -279.25 465.45 -279.25 465.45 -186.2 372.35 -186.2 372.35 -279.25 279.25 -279.25 279.25 -372.35 186.2 -372.35 186.2 93.1 93.1 93.1 93.1 -651.65 279.25 -651.65 279.25 -558.55 372.35 -558.55 372.35 -465.45 465.45 -465.45 465.45 -372.35 558.55 -372.35 558.55 -465.45 651.65 -465.45 651.65 -558.55 744.75 -558.55 744.75 -651.65 837.8 -651.65 837.8 93.1 651.65 93.1 651.65 -372.35 558.55 -372.35" fill-rule="evenodd" stroke="none"/>
    </g>
    <g id="font_Verdana_11pt_st_e0">
      <path d="M558.55 -93.1 L651.65 -93.1 651.65 0.0 558.55 0.0 558.55 -93.1 M465.45 -279.25 L465.45 -372.35 279.25 -372.35 279.25 -279.25 465.45 -279.25 M558.55 -372.35 L651.65 -372.35 651.65 -186.2 279.25 -186.2 279.25 0.0 558.55 0.0 558.55 93.1 186.2 93.1 186.2 0.0 93.1 0.0 93.1 -372.35 186.2 -372.35 186.2 -465.45 558.55 -465.45 558.55 -372.35" fill-rule="evenodd" stroke="none"/>
    </g>
    <g id="font_Verdana_11pt_st_d0">
      <path d="M465.45 -372.35 L279.25 -372.35 279.25 0.0 465.45 0.0 465.45 -372.35 M186.2 -372.35 L186.2 -465.45 465.45 -465.45 465.45 -744.75 651.65 -744.75 651.65 93.1 186.2 93.1 186.2 0.0 93.1 0.0 93.1 -372.35 186.2 -372.35" fill-rule="evenodd" stroke="none"/>
    </g>
    <g id="font_Verdana_11pt_st_a0">
      <path d="M279.25 0.0 L465.45 0.0 465.45 -186.2 279.25 -186.2 279.25 0.0 M558.55 -372.35 L651.65 -372.35 651.65 93.1 186.2 93.1 186.2 0.0 93.1 0.0 93.1 -186.2 186.2 -186.2 186.2 -279.25 465.45 -279.25 465.45 -372.35 186.2 -372.35 186.2 -465.45 558.55 -465.45 558.55 -372.35" fill-rule="evenodd" stroke="none"/>
    </g>
    <g id="font_Verdana_11pt_st_l0">
      <path d="M279.25 -744.75 L279.25 93.1 93.1 93.1 93.1 -744.75 279.25 -744.75" fill-rule="evenodd" stroke="none"/>
    </g>
    <g id="font_Verdana_11pt_st_P0">
      <path d="M465.45 -279.25 L465.45 -558.55 279.25 -558.55 279.25 -279.25 465.45 -279.25 M558.55 -558.55 L651.65 -558.55 651.65 -279.25 558.55 -279.25 558.55 -186.2 279.25 -186.2 279.25 93.1 93.1 93.1 93.1 -651.65 558.55 -651.65 558.55 -558.55" fill-rule="evenodd" stroke="none"/>
    </g>
    <g id="font_Verdana_11pt_st_o0">
      <path d="M465.45 -372.35 L279.25 -372.35 279.25 0.0 465.45 0.0 465.45 -372.35 M558.55 -372.35 L651.65 -372.35 651.65 0.0 558.55 0.0 558.55 93.1 186.2 93.1 186.2 0.0 93.1 0.0 93.1 -372.35 186.2 -372.35 186.2 -465.45 558.55 -465.45 558.55 -372.35" fill-rule="evenodd" stroke="none"/>
    </g>
    <g id="font_Verdana_11pt_st_p0">
      <path d="M465.45 -372.35 L279.25 -372.35 279.25 0.0 465.45 0.0 465.45 -372.35 M558.55 -372.35 L651.65 -372.35 651.65 0.0 558.55 0.0 558.55 93.1 279.25 93.1 279.25 279.25 93.1 279.25 93.1 -465.45 558.55 -465.45 558.55 -372.35" fill-rule="evenodd" stroke="none"/>
    </g>
    <g id="font_Verdana_11pt_st_u0">
      <path d="M279.25 -465.45 L279.25 0.0 465.45 0.0 465.45 -465.45 651.65 -465.45 651.65 93.1 186.2 93.1 186.2 0.0 93.1 0.0 93.1 -465.45 279.25 -465.45" fill-rule="evenodd" stroke="none"/>
    </g>
    <g id="font_Verdana_11pt_st_P1">
      <path d="M465.45 -558.55 L186.2 -558.55 186.2 -279.25 465.45 -279.25 465.45 -186.2 186.2 -186.2 186.2 93.1 93.1 93.1 93.1 -651.65 465.45 -651.65 465.45 -558.55 558.55 -558.55 558.55 -279.25 465.45 -279.25 465.45 -558.55" fill-rule="evenodd" stroke="none"/>
    </g>
    <g id="font_Verdana_11pt_st_l1">
      <path d="M186.2 -744.75 L186.2 93.1 93.1 93.1 93.1 -744.75 186.2 -744.75" fill-rule="evenodd" stroke="none"/>
    </g>
    <g id="font_Verdana_11pt_st_a1">
      <path d="M186.2 0.0 L93.1 0.0 93.1 -186.2 186.2 -186.2 186.2 0.0 465.45 0.0 465.45 -186.2 186.2 -186.2 186.2 -279.25 465.45 -279.25 465.45 -372.35 558.55 -372.35 558.55 93.1 186.2 93.1 186.2 0.0 M465.45 -372.35 L186.2 -372.35 186.2 -465.45 465.45 -465.45 465.45 -372.35" fill-rule="evenodd" stroke="none"/>
    </g>
    <g id="font_Verdana_11pt_st_c0">
      <path d="M465.45 0.0 L465.45 93.1 186.2 93.1 186.2 0.0 465.45 0.0 465.45 -93.1 558.55 -93.1 558.55 0.0 465.45 0.0 M186.2 -372.35 L186.2 0.0 93.1 0.0 93.1 -372.35 186.2 -372.35 186.2 -465.45 465.45 -465.45 465.45 -372.35 186.2 -372.35 M558.55 -372.35 L558.55 -279.25 465.45 -279.25 465.45 -372.35 558.55 -372.35" fill-rule="evenodd" stroke="none"/>
    </g>
    <g id="font_Verdana_11pt_st_e1">
      <path d="M465.45 0.0 L465.45 93.1 186.2 93.1 186.2 0.0 465.45 0.0 465.45 -93.1 558.55 -93.1 558.55 0.0 465.45 0.0 M558.55 -372.35 L558.55 -186.2 186.2 -186.2 186.2 0.0 93.1 0.0 93.1 -372.35 186.2 -372.35 186.2 -279.25 465.45 -279.25 465.45 -372.35 558.55 -372.35 M465.45 -372.35 L186.2 -372.35 186.2 -465.45 465.45 -465.45 465.45 -372.35" fill-rule="evenodd" stroke="none"/>
    </g>
    <g id="font_Verdana_11pt_st_t0">
      <path d="M372.35 0.0 L372.35 93.1 186.2 93.1 186.2 0.0 372.35 0.0 M372.35 -372.35 L186.2 -372.35 186.2 0.0 93.1 0.0 93.1 -372.35 0.0 -372.35 0.0 -465.45 93.1 -465.45 93.1 -651.65 186.2 -651.65 186.2 -465.45 372.35 -465.45 372.35 -372.35" fill-rule="evenodd" stroke="none"/>
    </g>
    <g id="font_Verdana_11pt_st_h0">
      <path d="M558.55 -372.35 L558.55 93.1 465.45 93.1 465.45 -372.35 558.55 -372.35 M186.2 -744.75 L186.2 -465.45 465.45 -465.45 465.45 -372.35 186.2 -372.35 186.2 93.1 93.1 93.1 93.1 -744.75 186.2 -744.75" fill-rule="evenodd" stroke="none"/>
    </g>
    <g id="font_Verdana_11pt_st_i0">
      <path d="M186.2 -465.45 L186.2 93.1 93.1 93.1 93.1 -465.45 186.2 -465.45 M186.2 -744.75 L186.2 -651.65 93.1 -651.65 93.1 -744.75 186.2 -744.75" fill-rule="evenodd" stroke="none"/>
    </g>
    <g id="font_Verdana_11pt_st_s0">
      <path d="M372.35 0.0 L372.35 93.1 93.1 93.1 93.1 0.0 372.35 0.0 372.35 -93.1 279.25 -93.1 279.25 -186.2 465.45 -186.2 465.45 0.0 372.35 0.0 M186.2 -372.35 L186.2 -279.25 279.25 -279.25 279.25 -186.2 93.1 -186.2 93.1 -372.35 186.2 -372.35 186.2 -465.45 465.45 -465.45 465.45 -372.35 186.2 -372.35" fill-rule="evenodd" stroke="none"/>
    </g>
    <g id="font_Verdana_11pt_st_p1">
      <path d="M465.45 -372.35 L186.2 -372.35 186.2 0.0 465.45 0.0 465.45 93.1 186.2 93.1 186.2 279.25 93.1 279.25 93.1 -465.45 465.45 -465.45 465.45 -372.35 558.55 -372.35 558.55 0.0 465.45 0.0 465.45 -372.35" fill-rule="evenodd" stroke="none"/>
    </g>
    <g id="font_Verdana_11pt_st_o1">
      <path d="M465.45 0.0 L465.45 93.1 186.2 93.1 186.2 0.0 465.45 0.0 465.45 -372.35 558.55 -372.35 558.55 0.0 465.45 0.0 M186.2 -372.35 L186.2 0.0 93.1 0.0 93.1 -372.35 186.2 -372.35 186.2 -465.45 465.45 -465.45 465.45 -372.35 186.2 -372.35" fill-rule="evenodd" stroke="none"/>
    </g>
    <g id="font_Verdana_11pt_st_n0">
      <path d="M465.45 -372.35 L186.2 -372.35 186.2 93.1 93.1 93.1 93.1 -465.45 465.45 -465.45 465.45 -372.35 558.55 -372.35 558.55 93.1 465.45 93.1 465.45 -372.35" fill-rule="evenodd" stroke="none"/>
    </g>
    <g id="font_Verdana_11pt_st_r0">
      <path d="M279.25 -372.35 L279.25 -279.25 186.2 -279.25 186.2 93.1 93.1 93.1 93.1 -465.45 186.2 -465.45 186.2 -372.35 279.25 -372.35 279.25 -465.45 465.45 -465.45 465.45 -372.35 279.25 -372.35" fill-rule="evenodd" stroke="none"/>
    </g>
    <g id="font_Verdana_11pt_st_f0">
      <path d="M372.35 -372.35 L186.2 -372.35 186.2 93.1 93.1 93.1 93.1 -372.35 0.0 -372.35 0.0 -465.45 93.1 -465.45 93.1 -651.65 186.2 -651.65 186.2 -465.45 372.35 -465.45 372.35 -372.35 M372.35 -744.75 L372.35 -651.65 186.2 -651.65 186.2 -744.75 372.35 -744.75" fill-rule="evenodd" stroke="none"/>
    </g>
    <g id="font_Verdana_11pt_st_y0">
      <path d="M186.2 186.2 L279.25 186.2 279.25 279.25 186.2 279.25 186.2 186.2 M372.35 -93.1 L372.35 186.2 279.25 186.2 279.25 -93.1 372.35 -93.1 372.35 -372.35 465.45 -372.35 465.45 -93.1 372.35 -93.1 M93.1 -465.45 L186.2 -465.45 186.2 -372.35 93.1 -372.35 93.1 -465.45 M279.25 -372.35 L279.25 -93.1 186.2 -93.1 186.2 -372.35 279.25 -372.35 M465.45 -465.45 L558.55 -465.45 558.55 -372.35 465.45 -372.35 465.45 -465.45" fill-rule="evenodd" stroke="none"/>
    </g>
    <g id="font_Verdana_11pt_st_u1">
      <path d="M186.2 -465.45 L186.2 0.0 93.1 0.0 93.1 -465.45 186.2 -465.45 M558.55 -465.45 L558.55 93.1 186.2 93.1 186.2 0.0 465.45 0.0 465.45 -465.45 558.55 -465.45" fill-rule="evenodd" stroke="none"/>
    </g>
    <g id="font_Verdana_11pt_st_m0">
      <path d="M930.9 -372.35 L930.9 93.1 837.8 93.1 837.8 -372.35 930.9 -372.35 M465.45 -372.35 L186.2 -372.35 186.2 93.1 93.1 93.1 93.1 -465.45 465.45 -465.45 465.45 -372.35 558.55 -372.35 558.55 93.1 465.45 93.1 465.45 -372.35 M558.55 -465.45 L837.8 -465.45 837.8 -372.35 558.55 -372.35 558.55 -465.45" fill-rule="evenodd" stroke="none"/>
    </g>
    <g id="font_Verdana_11pt_st_v0">
      <path d="M372.35 -93.1 L372.35 93.1 279.25 93.1 279.25 -93.1 372.35 -93.1 372.35 -279.25 465.45 -279.25 465.45 -93.1 372.35 -93.1 M279.25 -279.25 L279.25 -93.1 186.2 -93.1 186.2 -279.25 279.25 -279.25 M186.2 -465.45 L186.2 -279.25 93.1 -279.25 93.1 -465.45 186.2 -465.45 M558.55 -465.45 L558.55 -279.25 465.45 -279.25 465.45 -465.45 558.55 -465.45" fill-rule="evenodd" stroke="none"/>
    </g>
    <g id="font_Verdana_11pt_st__2">
      <path d="M186.2 279.25 L93.1 279.25 93.1 186.2 186.2 186.2 186.2 279.25 M279.25 -93.1 L279.25 186.2 186.2 186.2 186.2 -93.1 279.25 -93.1" fill-rule="evenodd" stroke="none"/>
    </g>
    <g id="font_Verdana_11pt_st_g0">
      <path d="M465.45 279.25 L186.2 279.25 186.2 186.2 465.45 186.2 465.45 279.25 M186.2 -372.35 L186.2 0.0 93.1 0.0 93.1 -372.35 186.2 -372.35 186.2 -465.45 558.55 -465.45 558.55 186.2 465.45 186.2 465.45 93.1 186.2 93.1 186.2 0.0 465.45 0.0 465.45 -372.35 186.2 -372.35" fill-rule="evenodd" stroke="none"/>
    </g>
    <g id="font_Verdana_11pt_st_w0">
      <path d="M651.65 -93.1 L651.65 93.1 558.55 93.1 558.55 -93.1 651.65 -93.1 651.65 -465.45 744.75 -465.45 744.75 -93.1 651.65 -93.1 M558.55 -279.25 L558.55 -93.1 465.45 -93.1 465.45 -279.25 558.55 -279.25 M279.25 -279.25 L372.35 -279.25 372.35 -93.1 279.25 -93.1 279.25 -279.25 M279.25 -93.1 L279.25 93.1 186.2 93.1 186.2 -93.1 279.25 -93.1 M186.2 -465.45 L186.2 -93.1 93.1 -93.1 93.1 -465.45 186.2 -465.45 M465.45 -465.45 L465.45 -279.25 372.35 -279.25 372.35 -465.45 465.45 -465.45" fill-rule="evenodd" stroke="none"/>
    </g>
    <g id="font_Verdana_11pt_st_d1">
      <path d="M186.2 -372.35 L186.2 0.0 93.1 0.0 93.1 -372.35 186.2 -372.35 186.2 -465.45 465.45 -465.45 465.45 -744.75 558.55 -744.75 558.55 93.1 186.2 93.1 186.2 0.0 465.45 0.0 465.45 -372.35 186.2 -372.35" fill-rule="evenodd" stroke="none"/>
    </g>
    <g id="font_Verdana_11pt_st_.0">
      <path d="M279.25 -93.1 L279.25 93.1 186.2 93.1 186.2 -93.1 279.25 -93.1" fill-rule="evenodd" stroke="none"/>
    </g>
    <g id="font_Verdana_11pt_st__3">
      <path d="M372.35 279.25 L279.25 279.25 279.25 186.2 372.35 186.2 372.35 279.25 M279.25 0.0 L279.25 186.2 186.2 186.2 186.2 0.0 279.25 0.0 M186.2 -465.45 L186.2 0.0 93.1 0.0 93.1 -465.45 186.2 -465.45 186.2 -651.65 279.25 -651.65 279.25 -465.45 186.2 -465.45 M372.35 -744.75 L372.35 -651.65 279.25 -651.65 279.25 -744.75 372.35 -744.75" fill-rule="evenodd" stroke="none"/>
    </g>
    <g id="font_Verdana_11pt_st__4">
      <path d="M186.2 279.25 L93.1 279.25 93.1 186.2 186.2 186.2 186.2 279.25 M372.35 0.0 L279.25 0.0 279.25 -465.45 372.35 -465.45 372.35 0.0 M279.25 0.0 L279.25 186.2 186.2 186.2 186.2 0.0 279.25 0.0 M279.25 -651.65 L279.25 -465.45 186.2 -465.45 186.2 -651.65 279.25 -651.65 M186.2 -744.75 L186.2 -651.65 93.1 -651.65 93.1 -744.75 186.2 -744.75" fill-rule="evenodd" stroke="none"/>
    </g>
  </defs>
</svg>
