<?xml version="1.0" encoding="UTF-8" standalone="no"?>
<svg xmlns:ffdec="https://www.free-decompiler.com/flash" xmlns:xlink="http://www.w3.org/1999/xlink" ffdec:objectType="frame" height="471.2px" width="333.0px" xmlns="http://www.w3.org/2000/svg">
  <g transform="matrix(1.0, 0.0, 0.0, 1.0, 24.0, 0.0)">
    <use ffdec:characterId="6" height="64.0" transform="matrix(1.0, 0.0, 0.0, 1.0, 0.0, 0.0)" width="200.0" xlink:href="#sprite0"/>
    <use ffdec:characterId="8" height="33.0" id="medalNameText" transform="matrix(1.0, 0.0, 0.0, 1.0, 62.0, 35.0)" width="133.0" xlink:href="#text0"/>
    <use ffdec:characterId="10" height="9.9" transform="matrix(1.0, 0.0, 0.0, 1.0, 70.85, 10.3)" width="69.25" xlink:href="#text1"/>
    <use ffdec:characterId="11" height="14.9" id="medalValueText" transform="matrix(0.9986, 0.0, 0.0, 1.0, 122.0156, 8.0)" width="70.0" xlink:href="#text2"/>
    <use ffdec:characterId="13" height="50.0" id="medalContainer" transform="matrix(1.0, 0.0, 0.0, 1.0, 7.0, 7.0)" width="50.0" xlink:href="#sprite1"/>
    <use ffdec:characterId="14" height="17.25" transform="matrix(1.0, 0.0, 0.0, 1.0, 205.0, 453.95)" width="104.0" xlink:href="#text3"/>
  </g>
  <defs>
    <g id="sprite0" transform="matrix(1.0, 0.0, 0.0, 1.0, 100.0, 32.0)">
      <use ffdec:characterId="5" height="64.0" transform="matrix(1.0, 0.0, 0.0, 1.0, -100.0, -32.0)" width="200.0" xlink:href="#shape0"/>
    </g>
    <g id="shape0" transform="matrix(1.0, 0.0, 0.0, 1.0, 100.0, 32.0)">
      <path d="M57.5 -8.0 L58.55 -8.0 95.0 -8.0 95.0 -27.0 -36.0 -27.0 -36.0 -8.0 53.5 -8.0 55.25 -8.0 57.0 -8.0 57.5 -8.0 M96.9 -5.0 L96.9 -6.0 -38.0 -6.0 -38.0 -28.95 -39.0 -28.95 -39.0 29.0 -97.0 29.0 -97.0 -3.0 -97.1 -3.0 -97.1 -8.0 -97.0 -8.0 -97.0 -29.0 97.0 -29.0 97.0 29.0 -38.0 29.0 -38.0 -5.0 96.9 -5.0 M99.7 -31.7 L100.0 -30.95 100.0 31.0 99.7 31.7 99.0 32.0 -99.0 32.0 -99.7 31.7 -100.0 31.0 -100.0 -30.95 -99.7 -31.7 -99.0 -32.0 99.0 -32.0 99.7 -31.7 M97.7 -29.7 Q97.4 -30.0 97.0 -30.0 L-97.0 -30.0 Q-97.45 -30.0 -97.7 -29.7 L-98.0 -29.0 -98.0 29.0 -97.7 29.7 Q-97.45 30.0 -97.0 30.0 L97.0 30.0 Q97.4 30.0 97.7 29.7 L98.0 29.0 98.0 -29.0 97.7 -29.7 M95.0 -3.0 L-36.0 -3.0 -36.0 27.0 95.0 27.0 95.0 -3.0 M-41.0 -3.0 L-41.0 -27.0 -95.0 -27.0 -95.0 27.0 -41.0 27.0 -41.0 5.9 -41.0 4.0 -41.0 -3.0" fill="#000000" fill-rule="evenodd" stroke="none"/>
      <path d="M57.5 -8.0 L57.0 -8.0 55.25 -8.0 53.5 -8.0 -36.0 -8.0 -36.0 -27.0 95.0 -27.0 95.0 -8.0 58.55 -8.0 57.5 -8.0 M93.0 -25.0 L-34.0 -25.0 -34.0 -10.0 93.0 -10.0 93.0 -25.0 M95.0 -3.0 L95.0 27.0 -36.0 27.0 -36.0 -3.0 95.0 -3.0 M-41.0 -3.0 L-41.0 4.0 -41.0 5.9 -41.0 27.0 -95.0 27.0 -95.0 -27.0 -41.0 -27.0 -41.0 -3.0" fill="#25272d" fill-rule="evenodd" stroke="none"/>
      <path d="M96.9 -5.0 L-38.0 -5.0 -38.0 29.0 97.0 29.0 97.0 -29.0 -97.0 -29.0 -97.0 -8.0 -97.1 -8.0 -97.1 -3.0 -97.0 -3.0 -97.0 29.0 -39.0 29.0 -39.0 -28.95 -38.0 -28.95 -38.0 -6.0 96.9 -6.0 96.9 -5.0 M97.7 -29.7 L98.0 -29.0 98.0 29.0 97.7 29.7 Q97.4 30.0 97.0 30.0 L-97.0 30.0 Q-97.45 30.0 -97.7 29.7 L-98.0 29.0 -98.0 -29.0 -97.7 -29.7 Q-97.45 -30.0 -97.0 -30.0 L97.0 -30.0 Q97.4 -30.0 97.7 -29.7" fill="#4a4f5a" fill-rule="evenodd" stroke="none"/>
      <path d="M93.0 -25.0 L93.0 -10.0 -34.0 -10.0 -34.0 -25.0 93.0 -25.0" fill="#101113" fill-rule="evenodd" stroke="none"/>
    </g>
    <g id="text1" transform="matrix(1.0, 0.0, 0.0, 1.0, -0.85, -0.3)">
      <g transform="matrix(1.0, 0.0, 0.0, 1.0, 0.0, 0.0)">
        <use fill="#ffcc00" height="9.9" transform="matrix(0.0088, 0.0, 0.0, 0.0088, 0.0, 9.0)" width="69.25" xlink:href="#font_Verdana_M0"/>
        <use fill="#ffcc00" height="9.9" transform="matrix(0.0088, 0.0, 0.0, 0.0088, 8.55, 9.0)" width="69.25" xlink:href="#font_Verdana_E0"/>
        <use fill="#ffcc00" height="9.9" transform="matrix(0.0088, 0.0, 0.0, 0.0088, 14.7, 9.0)" width="69.25" xlink:href="#font_Verdana_D0"/>
        <use fill="#ffcc00" height="9.9" transform="matrix(0.0088, 0.0, 0.0, 0.0088, 22.15, 9.0)" width="69.25" xlink:href="#font_Verdana_A0"/>
        <use fill="#ffcc00" height="9.9" transform="matrix(0.0088, 0.0, 0.0, 0.0088, 29.15, 9.0)" width="69.25" xlink:href="#font_Verdana_L0"/>
        <use fill="#ffcc00" height="9.9" transform="matrix(0.0088, 0.0, 0.0, 0.0088, 38.0, 9.0)" width="69.25" xlink:href="#font_Verdana_G0"/>
        <use fill="#ffcc00" height="9.9" transform="matrix(0.0088, 0.0, 0.0, 0.0088, 45.3, 9.0)" width="69.25" xlink:href="#font_Verdana_E0"/>
        <use fill="#ffcc00" height="9.9" transform="matrix(0.0088, 0.0, 0.0, 0.0088, 51.45, 9.0)" width="69.25" xlink:href="#font_Verdana_T0"/>
        <use fill="#ffcc00" height="9.9" transform="matrix(0.0088, 0.0, 0.0, 0.0088, 57.6, 9.0)" width="69.25" xlink:href="#font_Verdana__1"/>
      </g>
    </g>
    <g id="font_Verdana_M0">
      <path d="M875.5 0.0 L875.5 -744.5 652.5 -744.5 485.5 -371.0 318.0 -744.5 95.0 -744.5 95.0 0.0 276.0 0.0 276.0 -498.5 414.0 -175.0 546.5 -175.0 684.5 -498.5 684.5 0.0 875.5 0.0" fill-rule="evenodd" stroke="none"/>
    </g>
    <g id="font_Verdana_E0">
      <path d="M633.5 0.0 L633.5 -144.0 286.0 -144.0 286.0 -328.0 608.5 -328.0 608.5 -472.0 286.0 -472.0 286.0 -600.5 633.5 -600.5 633.5 -744.5 95.0 -744.5 95.0 0.0 633.5 0.0" fill-rule="evenodd" stroke="none"/>
    </g>
    <g id="font_Verdana_D0">
      <path d="M600.0 -373.0 L600.0 -373.0 Q600.0 -299.0 575.5 -248.5 551.0 -198.5 498.5 -168.5 468.0 -152.0 436.0 -145.5 404.0 -139.5 335.5 -139.5 L287.0 -139.5 287.0 -605.5 335.5 -605.5 Q397.5 -605.5 428.5 -600.0 459.0 -595.0 488.5 -580.5 546.5 -551.0 573.5 -498.5 600.0 -446.5 600.0 -373.0 M798.5 -371.5 L798.5 -371.5 Q798.5 -479.5 754.5 -559.0 710.0 -639.0 633.0 -686.0 588.0 -714.0 522.0 -729.0 456.0 -744.5 365.0 -744.5 L95.0 -744.5 95.0 0.0 357.5 0.0 Q446.5 0.0 511.5 -13.0 576.5 -26.0 631.0 -59.0 703.5 -103.0 751.0 -185.0 798.5 -267.5 798.5 -371.5" fill-rule="evenodd" stroke="none"/>
    </g>
    <g id="font_Verdana_A0">
      <path d="M486.5 -287.0 L303.5 -287.0 395.0 -553.5 486.5 -287.0 M783.0 0.0 L508.0 -744.5 287.0 -744.5 12.0 0.0 205.5 0.0 257.5 -150.5 533.0 -150.5 584.5 0.0 783.0 0.0" fill-rule="evenodd" stroke="none"/>
    </g>
    <g id="font_Verdana_L0">
      <path d="M632.0 0.0 L632.0 -144.0 287.0 -144.0 287.0 -744.5 95.0 -744.5 95.0 0.0 632.0 0.0" fill-rule="evenodd" stroke="none"/>
    </g>
    <g id="font_Verdana_G0">
      <path d="M753.5 -42.5 L753.5 -410.0 410.0 -410.0 410.0 -269.5 558.5 -269.5 558.5 -123.5 Q547.5 -122.5 534.5 -122.0 521.0 -121.5 510.0 -121.5 382.0 -121.5 316.5 -187.0 251.0 -252.5 251.0 -376.0 251.0 -436.5 269.5 -482.5 287.5 -529.0 319.0 -559.0 352.0 -590.0 393.5 -605.0 435.0 -620.0 486.0 -620.0 529.5 -620.0 568.5 -608.5 607.0 -597.0 636.0 -581.0 661.0 -567.5 688.0 -548.0 715.0 -529.0 729.0 -518.5 L750.5 -518.5 750.5 -693.0 Q669.0 -732.5 602.5 -745.5 536.0 -759.0 462.5 -759.0 268.5 -759.0 160.0 -652.5 51.5 -546.5 51.5 -373.0 51.5 -191.0 159.0 -87.5 266.5 15.5 456.5 15.5 538.5 15.5 621.0 -3.5 703.5 -23.0 753.5 -42.5" fill-rule="evenodd" stroke="none"/>
    </g>
    <g id="font_Verdana_T0">
      <path d="M677.5 -600.5 L677.5 -744.5 20.5 -744.5 20.5 -600.5 253.0 -600.5 253.0 0.0 445.0 0.0 445.0 -600.5 677.5 -600.5" fill-rule="evenodd" stroke="none"/>
    </g>
    <g id="font_Verdana__1">
      <path d="M307.0 0.0 L307.0 -132.0 105.0 -132.0 105.0 0.0 307.0 0.0 M310.5 -744.5 L101.5 -744.5 124.5 -214.5 287.5 -214.5 310.5 -744.5" fill-rule="evenodd" stroke="none"/>
    </g>
    <g id="text2" transform="matrix(1.0, 0.0, 0.0, 1.0, -24.25, 2.0)">
      <g transform="matrix(1.0, 0.0, 0.0, 1.0, 24.25, -2.0)">
        <use fill="#666d7a" height="14.9" transform="matrix(0.0088, 0.0, 0.0, 0.0088, 35.05, 9.05)" width="70.0" xlink:href="#font_Verdana_10"/>
        <use fill="#666d7a" height="14.9" transform="matrix(0.0088, 0.0, 0.0, 0.0088, 41.45, 9.05)" width="70.0" xlink:href="#font_Verdana_00"/>
        <use fill="#666d7a" height="14.9" transform="matrix(0.0088, 0.0, 0.0, 0.0088, 47.85, 9.05)" width="70.0" xlink:href="#font_Verdana_00"/>
        <use fill="#666d7a" height="14.9" transform="matrix(0.0088, 0.0, 0.0, 0.0088, 54.25, 9.05)" width="70.0" xlink:href="#font_Verdana_p0"/>
        <use fill="#666d7a" height="14.9" transform="matrix(0.0088, 0.0, 0.0, 0.0088, 60.55, 9.05)" width="70.0" xlink:href="#font_Verdana_t0"/>
        <use fill="#666d7a" height="14.9" transform="matrix(0.0088, 0.0, 0.0, 0.0088, 64.65, 9.05)" width="70.0" xlink:href="#font_Verdana_s0"/>
      </g>
    </g>
    <g id="font_Verdana_10">
      <path d="M630.0 0.0 L630.0 -130.0 476.5 -130.0 476.5 -746.5 311.0 -746.5 Q309.0 -716.5 296.0 -696.5 283.0 -676.5 257.0 -664.0 235.0 -653.5 202.0 -649.0 169.0 -645.0 133.0 -645.0 L133.0 -523.5 290.0 -523.5 290.0 -130.0 133.0 -130.0 133.0 0.0 630.0 0.0" fill-rule="evenodd" stroke="none"/>
    </g>
    <g id="font_Verdana_00">
      <path d="M478.5 -372.5 L478.5 -372.5 Q478.5 -239.0 451.5 -180.5 424.5 -122.0 364.0 -122.0 303.5 -122.0 276.5 -180.5 249.5 -239.0 249.5 -371.5 249.5 -508.0 276.0 -565.0 302.5 -622.5 364.0 -622.5 425.5 -622.5 452.0 -565.0 478.5 -508.0 478.5 -372.5 M672.0 -372.5 L672.0 -372.5 Q672.0 -467.0 655.5 -538.5 639.0 -610.5 602.5 -659.5 565.5 -709.5 507.5 -734.5 449.5 -760.0 364.0 -760.0 282.0 -760.0 223.0 -735.5 164.0 -711.0 127.0 -662.0 90.0 -612.5 73.0 -541.0 56.0 -469.5 56.0 -372.0 56.0 -278.0 72.5 -205.5 89.0 -132.5 126.0 -83.5 162.5 -34.5 221.5 -9.5 280.5 15.5 364.0 15.5 449.0 15.5 507.0 -9.5 565.0 -34.0 602.0 -82.5 638.0 -130.0 655.0 -204.5 672.0 -278.5 672.0 -372.5" fill-rule="evenodd" stroke="none"/>
    </g>
    <g id="font_Verdana_p0">
      <path d="M485.5 -284.5 L485.5 -284.5 Q485.5 -201.0 450.5 -159.0 415.5 -117.5 344.5 -117.5 324.5 -117.5 304.0 -119.5 283.5 -121.5 265.5 -128.5 L265.5 -410.5 Q290.0 -425.0 317.0 -433.0 344.0 -440.5 369.5 -440.5 429.5 -440.5 457.5 -403.5 485.5 -366.5 485.5 -284.5 M671.0 -288.5 L671.0 -288.5 Q671.0 -423.0 613.0 -500.0 554.5 -577.0 450.0 -577.0 393.5 -577.0 350.0 -556.5 307.0 -536.0 265.5 -503.0 L265.5 -561.5 85.0 -561.5 85.0 206.0 265.5 206.0 265.5 -28.0 Q300.5 -9.5 334.0 1.0 367.5 11.0 415.5 11.0 467.5 11.0 512.5 -9.0 558.0 -29.0 594.0 -68.0 628.5 -105.0 650.0 -162.0 671.0 -219.0 671.0 -288.5" fill-rule="evenodd" stroke="none"/>
    </g>
    <g id="font_Verdana_t0">
      <path d="M444.0 -5.0 L444.0 -128.0 429.0 -128.0 Q420.0 -123.0 397.5 -117.0 374.5 -111.0 361.0 -111.0 327.0 -111.0 309.0 -121.5 291.5 -131.5 284.5 -149.0 277.0 -166.5 276.5 -188.5 276.0 -210.5 276.0 -240.0 L276.0 -439.5 444.0 -439.5 444.0 -561.5 276.0 -561.5 276.0 -722.0 95.5 -722.0 95.5 -561.5 21.5 -561.5 21.5 -439.5 95.5 -439.5 95.5 -177.0 Q95.5 -74.0 147.0 -31.5 198.0 11.0 303.0 11.0 350.0 11.0 382.5 7.0 415.0 2.5 444.0 -5.0" fill-rule="evenodd" stroke="none"/>
    </g>
    <g id="font_Verdana_s0">
      <path d="M573.0 -178.0 L573.0 -178.0 Q573.0 -237.5 539.0 -277.0 505.0 -317.0 434.0 -335.5 402.0 -343.5 370.5 -348.5 338.5 -354.0 311.0 -359.5 261.0 -370.0 247.5 -380.5 234.0 -391.0 234.0 -411.0 234.0 -433.0 264.0 -445.0 293.5 -457.0 337.0 -457.0 389.5 -457.0 441.0 -439.5 492.0 -422.5 532.0 -395.0 L547.5 -395.0 547.5 -537.0 Q515.0 -551.5 457.5 -564.0 399.5 -577.0 336.5 -577.0 203.5 -577.0 127.0 -523.0 50.0 -469.5 50.0 -388.5 50.0 -325.5 87.0 -283.0 124.0 -241.0 200.5 -221.0 228.5 -213.5 263.0 -208.0 297.0 -203.0 317.0 -198.5 359.0 -190.0 374.0 -180.5 389.0 -171.5 389.0 -151.0 389.0 -128.0 363.5 -116.0 338.0 -104.5 285.0 -104.5 244.5 -104.5 209.0 -112.5 173.5 -121.0 145.5 -132.5 113.0 -145.5 95.5 -156.5 77.5 -168.0 64.0 -177.5 L47.5 -177.5 47.5 -29.5 Q84.5 -12.5 145.5 1.5 206.5 15.5 281.5 15.5 417.0 15.5 495.0 -37.5 573.0 -91.0 573.0 -178.0" fill-rule="evenodd" stroke="none"/>
    </g>
    <g id="sprite1" transform="matrix(1.0, 0.0, 0.0, 1.0, 0.0, 0.0)">
      <use ffdec:characterId="12" height="50.0" transform="matrix(1.0, 0.0, 0.0, 1.0, 0.0, 0.0)" width="50.0" xlink:href="#shape1"/>
    </g>
    <g id="shape1" transform="matrix(1.0, 0.0, 0.0, 1.0, 0.0, 0.0)">
      <path d="M50.0 0.0 L50.0 50.0 0.0 50.0 0.0 0.0 50.0 0.0" fill="#990000" fill-rule="evenodd" stroke="none"/>
    </g>
  </defs>
</svg>
