<?xml version="1.0" encoding="UTF-8" standalone="no"?>
<svg xmlns:ffdec="https://www.free-decompiler.com/flash" xmlns:xlink="http://www.w3.org/1999/xlink" ffdec:objectType="text" height="9.9px" width="69.25px" xmlns="http://www.w3.org/2000/svg">
  <g transform="matrix(1.0, 0.0, 0.0, 1.0, -0.85, -0.3)">
    <g transform="matrix(1.0, 0.0, 0.0, 1.0, 0.0, 0.0)">
      <use fill="#ffcc00" height="9.9" transform="matrix(0.0088, 0.0, 0.0, 0.0088, 0.0, 9.0)" width="69.25" xlink:href="#font_Verdana_M0"/>
      <use fill="#ffcc00" height="9.9" transform="matrix(0.0088, 0.0, 0.0, 0.0088, 8.55, 9.0)" width="69.25" xlink:href="#font_Verdana_E0"/>
      <use fill="#ffcc00" height="9.9" transform="matrix(0.0088, 0.0, 0.0, 0.0088, 14.7, 9.0)" width="69.25" xlink:href="#font_Verdana_D0"/>
      <use fill="#ffcc00" height="9.9" transform="matrix(0.0088, 0.0, 0.0, 0.0088, 22.15, 9.0)" width="69.25" xlink:href="#font_Verdana_A0"/>
      <use fill="#ffcc00" height="9.9" transform="matrix(0.0088, 0.0, 0.0, 0.0088, 29.15, 9.0)" width="69.25" xlink:href="#font_Verdana_L0"/>
      <use fill="#ffcc00" height="9.9" transform="matrix(0.0088, 0.0, 0.0, 0.0088, 38.0, 9.0)" width="69.25" xlink:href="#font_Verdana_G0"/>
      <use fill="#ffcc00" height="9.9" transform="matrix(0.0088, 0.0, 0.0, 0.0088, 45.3, 9.0)" width="69.25" xlink:href="#font_Verdana_E0"/>
      <use fill="#ffcc00" height="9.9" transform="matrix(0.0088, 0.0, 0.0, 0.0088, 51.45, 9.0)" width="69.25" xlink:href="#font_Verdana_T0"/>
      <use fill="#ffcc00" height="9.9" transform="matrix(0.0088, 0.0, 0.0, 0.0088, 57.6, 9.0)" width="69.25" xlink:href="#font_Verdana__1"/>
    </g>
  </g>
  <defs>
    <g id="font_Verdana_M0">
      <path d="M875.5 0.0 L875.5 -744.5 652.5 -744.5 485.5 -371.0 318.0 -744.5 95.0 -744.5 95.0 0.0 276.0 0.0 276.0 -498.5 414.0 -175.0 546.5 -175.0 684.5 -498.5 684.5 0.0 875.5 0.0" fill-rule="evenodd" stroke="none"/>
    </g>
    <g id="font_Verdana_E0">
      <path d="M633.5 0.0 L633.5 -144.0 286.0 -144.0 286.0 -328.0 608.5 -328.0 608.5 -472.0 286.0 -472.0 286.0 -600.5 633.5 -600.5 633.5 -744.5 95.0 -744.5 95.0 0.0 633.5 0.0" fill-rule="evenodd" stroke="none"/>
    </g>
    <g id="font_Verdana_D0">
      <path d="M600.0 -373.0 L600.0 -373.0 Q600.0 -299.0 575.5 -248.5 551.0 -198.5 498.5 -168.5 468.0 -152.0 436.0 -145.5 404.0 -139.5 335.5 -139.5 L287.0 -139.5 287.0 -605.5 335.5 -605.5 Q397.5 -605.5 428.5 -600.0 459.0 -595.0 488.5 -580.5 546.5 -551.0 573.5 -498.5 600.0 -446.5 600.0 -373.0 M798.5 -371.5 L798.5 -371.5 Q798.5 -479.5 754.5 -559.0 710.0 -639.0 633.0 -686.0 588.0 -714.0 522.0 -729.0 456.0 -744.5 365.0 -744.5 L95.0 -744.5 95.0 0.0 357.5 0.0 Q446.5 0.0 511.5 -13.0 576.5 -26.0 631.0 -59.0 703.5 -103.0 751.0 -185.0 798.5 -267.5 798.5 -371.5" fill-rule="evenodd" stroke="none"/>
    </g>
    <g id="font_Verdana_A0">
      <path d="M486.5 -287.0 L303.5 -287.0 395.0 -553.5 486.5 -287.0 M783.0 0.0 L508.0 -744.5 287.0 -744.5 12.0 0.0 205.5 0.0 257.5 -150.5 533.0 -150.5 584.5 0.0 783.0 0.0" fill-rule="evenodd" stroke="none"/>
    </g>
    <g id="font_Verdana_L0">
      <path d="M632.0 0.0 L632.0 -144.0 287.0 -144.0 287.0 -744.5 95.0 -744.5 95.0 0.0 632.0 0.0" fill-rule="evenodd" stroke="none"/>
    </g>
    <g id="font_Verdana_G0">
      <path d="M753.5 -42.5 L753.5 -410.0 410.0 -410.0 410.0 -269.5 558.5 -269.5 558.5 -123.5 Q547.5 -122.5 534.5 -122.0 521.0 -121.5 510.0 -121.5 382.0 -121.5 316.5 -187.0 251.0 -252.5 251.0 -376.0 251.0 -436.5 269.5 -482.5 287.5 -529.0 319.0 -559.0 352.0 -590.0 393.5 -605.0 435.0 -620.0 486.0 -620.0 529.5 -620.0 568.5 -608.5 607.0 -597.0 636.0 -581.0 661.0 -567.5 688.0 -548.0 715.0 -529.0 729.0 -518.5 L750.5 -518.5 750.5 -693.0 Q669.0 -732.5 602.5 -745.5 536.0 -759.0 462.5 -759.0 268.5 -759.0 160.0 -652.5 51.5 -546.5 51.5 -373.0 51.5 -191.0 159.0 -87.5 266.5 15.5 456.5 15.5 538.5 15.5 621.0 -3.5 703.5 -23.0 753.5 -42.5" fill-rule="evenodd" stroke="none"/>
    </g>
    <g id="font_Verdana_T0">
      <path d="M677.5 -600.5 L677.5 -744.5 20.5 -744.5 20.5 -600.5 253.0 -600.5 253.0 0.0 445.0 0.0 445.0 -600.5 677.5 -600.5" fill-rule="evenodd" stroke="none"/>
    </g>
    <g id="font_Verdana__1">
      <path d="M307.0 0.0 L307.0 -132.0 105.0 -132.0 105.0 0.0 307.0 0.0 M310.5 -744.5 L101.5 -744.5 124.5 -214.5 287.5 -214.5 310.5 -744.5" fill-rule="evenodd" stroke="none"/>
    </g>
  </defs>
</svg>
