<?xml version="1.0" encoding="UTF-8" standalone="no"?>
<svg xmlns:ffdec="https://www.free-decompiler.com/flash" xmlns:xlink="http://www.w3.org/1999/xlink" ffdec:objectType="text" height="14.9px" width="70.0px" xmlns="http://www.w3.org/2000/svg">
  <g transform="matrix(1.0, 0.0, 0.0, 1.0, -24.25, 2.0)">
    <g transform="matrix(1.0, 0.0, 0.0, 1.0, 24.25, -2.0)">
      <use fill="#666d7a" height="14.9" transform="matrix(0.0088, 0.0, 0.0, 0.0088, 35.05, 9.05)" width="70.0" xlink:href="#font_Verdana_10"/>
      <use fill="#666d7a" height="14.9" transform="matrix(0.0088, 0.0, 0.0, 0.0088, 41.45, 9.05)" width="70.0" xlink:href="#font_Verdana_00"/>
      <use fill="#666d7a" height="14.9" transform="matrix(0.0088, 0.0, 0.0, 0.0088, 47.85, 9.05)" width="70.0" xlink:href="#font_Verdana_00"/>
      <use fill="#666d7a" height="14.9" transform="matrix(0.0088, 0.0, 0.0, 0.0088, 54.25, 9.05)" width="70.0" xlink:href="#font_Verdana_p0"/>
      <use fill="#666d7a" height="14.9" transform="matrix(0.0088, 0.0, 0.0, 0.0088, 60.55, 9.05)" width="70.0" xlink:href="#font_Verdana_t0"/>
      <use fill="#666d7a" height="14.9" transform="matrix(0.0088, 0.0, 0.0, 0.0088, 64.65, 9.05)" width="70.0" xlink:href="#font_Verdana_s0"/>
    </g>
  </g>
  <defs>
    <g id="font_Verdana_10">
      <path d="M630.0 0.0 L630.0 -130.0 476.5 -130.0 476.5 -746.5 311.0 -746.5 Q309.0 -716.5 296.0 -696.5 283.0 -676.5 257.0 -664.0 235.0 -653.5 202.0 -649.0 169.0 -645.0 133.0 -645.0 L133.0 -523.5 290.0 -523.5 290.0 -130.0 133.0 -130.0 133.0 0.0 630.0 0.0" fill-rule="evenodd" stroke="none"/>
    </g>
    <g id="font_Verdana_00">
      <path d="M478.5 -372.5 L478.5 -372.5 Q478.5 -239.0 451.5 -180.5 424.5 -122.0 364.0 -122.0 303.5 -122.0 276.5 -180.5 249.5 -239.0 249.5 -371.5 249.5 -508.0 276.0 -565.0 302.5 -622.5 364.0 -622.5 425.5 -622.5 452.0 -565.0 478.5 -508.0 478.5 -372.5 M672.0 -372.5 L672.0 -372.5 Q672.0 -467.0 655.5 -538.5 639.0 -610.5 602.5 -659.5 565.5 -709.5 507.5 -734.5 449.5 -760.0 364.0 -760.0 282.0 -760.0 223.0 -735.5 164.0 -711.0 127.0 -662.0 90.0 -612.5 73.0 -541.0 56.0 -469.5 56.0 -372.0 56.0 -278.0 72.5 -205.5 89.0 -132.5 126.0 -83.5 162.5 -34.5 221.5 -9.5 280.5 15.5 364.0 15.5 449.0 15.5 507.0 -9.5 565.0 -34.0 602.0 -82.5 638.0 -130.0 655.0 -204.5 672.0 -278.5 672.0 -372.5" fill-rule="evenodd" stroke="none"/>
    </g>
    <g id="font_Verdana_p0">
      <path d="M485.5 -284.5 L485.5 -284.5 Q485.5 -201.0 450.5 -159.0 415.5 -117.5 344.5 -117.5 324.5 -117.5 304.0 -119.5 283.5 -121.5 265.5 -128.5 L265.5 -410.5 Q290.0 -425.0 317.0 -433.0 344.0 -440.5 369.5 -440.5 429.5 -440.5 457.5 -403.5 485.5 -366.5 485.5 -284.5 M671.0 -288.5 L671.0 -288.5 Q671.0 -423.0 613.0 -500.0 554.5 -577.0 450.0 -577.0 393.5 -577.0 350.0 -556.5 307.0 -536.0 265.5 -503.0 L265.5 -561.5 85.0 -561.5 85.0 206.0 265.5 206.0 265.5 -28.0 Q300.5 -9.5 334.0 1.0 367.5 11.0 415.5 11.0 467.5 11.0 512.5 -9.0 558.0 -29.0 594.0 -68.0 628.5 -105.0 650.0 -162.0 671.0 -219.0 671.0 -288.5" fill-rule="evenodd" stroke="none"/>
    </g>
    <g id="font_Verdana_t0">
      <path d="M444.0 -5.0 L444.0 -128.0 429.0 -128.0 Q420.0 -123.0 397.5 -117.0 374.5 -111.0 361.0 -111.0 327.0 -111.0 309.0 -121.5 291.5 -131.5 284.5 -149.0 277.0 -166.5 276.5 -188.5 276.0 -210.5 276.0 -240.0 L276.0 -439.5 444.0 -439.5 444.0 -561.5 276.0 -561.5 276.0 -722.0 95.5 -722.0 95.5 -561.5 21.5 -561.5 21.5 -439.5 95.5 -439.5 95.5 -177.0 Q95.5 -74.0 147.0 -31.5 198.0 11.0 303.0 11.0 350.0 11.0 382.5 7.0 415.0 2.5 444.0 -5.0" fill-rule="evenodd" stroke="none"/>
    </g>
    <g id="font_Verdana_s0">
      <path d="M573.0 -178.0 L573.0 -178.0 Q573.0 -237.5 539.0 -277.0 505.0 -317.0 434.0 -335.5 402.0 -343.5 370.5 -348.5 338.5 -354.0 311.0 -359.5 261.0 -370.0 247.5 -380.5 234.0 -391.0 234.0 -411.0 234.0 -433.0 264.0 -445.0 293.5 -457.0 337.0 -457.0 389.5 -457.0 441.0 -439.5 492.0 -422.5 532.0 -395.0 L547.5 -395.0 547.5 -537.0 Q515.0 -551.5 457.5 -564.0 399.5 -577.0 336.5 -577.0 203.5 -577.0 127.0 -523.0 50.0 -469.5 50.0 -388.5 50.0 -325.5 87.0 -283.0 124.0 -241.0 200.5 -221.0 228.5 -213.5 263.0 -208.0 297.0 -203.0 317.0 -198.5 359.0 -190.0 374.0 -180.5 389.0 -171.5 389.0 -151.0 389.0 -128.0 363.5 -116.0 338.0 -104.5 285.0 -104.5 244.5 -104.5 209.0 -112.5 173.5 -121.0 145.5 -132.5 113.0 -145.5 95.5 -156.5 77.5 -168.0 64.0 -177.5 L47.5 -177.5 47.5 -29.5 Q84.5 -12.5 145.5 1.5 206.5 15.5 281.5 15.5 417.0 15.5 495.0 -37.5 573.0 -91.0 573.0 -178.0" fill-rule="evenodd" stroke="none"/>
    </g>
  </defs>
</svg>
